<svg width="64" height="64" viewBox="0 0 64 64" fill="none" xmlns="http://www.w3.org/2000/svg">
<g clip-path="url(#clip0_1680_1623)">
<path d="M64 47.375H50.6665V44.7085H61.3335V43.375C61.3335 27.2085 48.1665 14.0415 32 14.0415C15.8335 14.0415 2.6665 27.2085 2.6665 43.375V44.7085H13.3335V47.375H0V43.375C0 25.7251 14.3501 11.375 32 11.375C49.6499 11.375 64 25.7251 64 43.375V47.375Z" fill="#F8B249"/>
<path d="M30.6665 12.7085H33.3335V20.7085H30.6665V12.7085Z" fill="#F8B249"/>
<path d="M9.96582 22.1187L16.4238 28.5767L14.5386 30.4624L8.08008 24.0044L9.96582 22.1187Z" fill="#F8B249"/>
<path d="M54.0366 22.1206L55.9224 24.0063L49.4639 30.4644L47.5786 28.5786L54.0366 22.1206Z" fill="#F8B249"/>
<path d="M32.3833 52.7085C28.5 52.7085 25.3335 49.5415 25.3335 45.6582C25.3335 42.9585 26.9165 40.4585 29.3501 39.2915L47.3501 30.7085L38.7666 48.7085C37.6001 51.125 35.1001 52.7085 32.3833 52.7085ZM41.7002 36.3418L30.5 41.6919C28.9834 42.4082 28 43.9751 28 45.6582C28 48.0752 29.9668 50.0415 32.3833 50.0415C34.0669 50.0415 35.6167 49.0581 36.3501 47.5415L41.7002 36.3418Z" fill="black"/>
</g>
<defs>
<clipPath id="clip0_1680_1623">
<rect width="64" height="64" fill="white"/>
</clipPath>
</defs>
</svg>
