<svg width="68" height="68" viewBox="0 0 68 68" fill="none" xmlns="http://www.w3.org/2000/svg">
<g clip-path="url(#clip0_628_2949)">
<path d="M49.1671 56.072L55.6613 49.5778L53.0937 45.9919C54.3747 43.9151 55.3049 41.6722 55.8663 39.3069L60.2141 38.5882V29.4021L55.8663 28.6834C55.3049 26.3181 54.3747 24.0752 53.0937 21.9984L55.6613 18.4125L49.1671 11.9183L45.581 14.4859C44.8583 14.0404 44.1057 13.6324 43.3362 13.269L42.4854 15.0704C43.9008 15.739 44.7693 16.3243 45.637 16.8962L48.9531 14.5217L53.0578 18.6264L50.6836 21.9423C52.424 24.5856 53.3962 26.514 54.2019 30.4277L58.2219 31.0922V36.8983L54.2019 37.5627C53.5682 40.6402 52.8942 42.6905 50.6836 46.0481L53.0578 49.364L48.9531 53.4687L45.6372 51.0945C42.9939 52.8349 41.0656 53.8071 37.1519 54.6128L36.4874 58.6327H30.6813L30.017 54.6128C26.9567 53.9827 24.9037 53.3149 21.5317 51.0945L18.2157 53.4687L14.1111 49.364L16.4854 46.0481C14.7508 43.4137 13.774 41.4843 12.9671 37.5627L8.9471 36.8983V31.0922L12.9671 30.4277C13.6024 27.34 14.2787 25.2937 16.4854 21.9423L14.1111 18.6264L18.2157 14.5217L21.5317 16.896C24.1587 15.1662 26.0847 14.1872 30.017 13.3777L30.6813 9.35771H36.4874L37.1519 13.3773C38.2301 13.5999 39.1598 13.7797 40.5817 14.286L41.2499 12.4092C40.4862 12.1373 39.6972 11.9042 38.896 11.7137L38.1773 7.3656H28.9912L28.2727 11.7133C25.9072 12.2748 23.6642 13.205 21.5876 14.486L18.0016 11.9184L11.5074 18.4126L14.075 21.9985C12.794 24.0754 11.8637 26.3182 11.3023 28.6836L6.95459 29.4022V38.5883L11.3023 39.307C11.8637 41.6723 12.794 43.9152 14.075 45.9921L11.5074 49.578L18.0016 56.0722L21.5876 53.5046C23.6642 54.7856 25.9072 55.7158 28.2727 56.2772L28.9912 60.625H38.1775L38.8961 56.2772C41.2615 55.7158 43.5043 54.7856 45.5812 53.5046L49.1671 56.072Z" fill="#F8B249"/>
<path d="M33.5843 49.0685C41.8958 49.0685 48.6576 42.3067 48.6576 33.9952C48.6576 25.6837 41.8958 18.9219 33.5843 18.9219C25.2728 18.9219 18.511 25.6837 18.511 33.9952C18.511 37.6531 19.8374 41.1806 22.2459 43.9277L23.744 42.6143C21.6542 40.2307 20.5032 37.1697 20.5032 33.9951C20.5032 26.7821 26.3715 20.914 33.5843 20.914C40.7972 20.914 46.6654 26.7822 46.6654 33.9951C46.6654 41.2079 40.7972 47.0762 33.5843 47.0762C30.4558 47.0762 27.4287 45.9547 25.0602 43.9183L23.7614 45.4288C26.491 47.7761 29.9795 49.0685 33.5843 49.0685Z" fill="#F8B249"/>
<path d="M30.9678 39.17V28.7468H23.983V39.17H25.9753V35.4526H28.9756V39.17H30.9678ZM25.9751 33.4603V30.7391H28.9755V33.4602H25.9751V33.4603Z" fill="black"/>
<path d="M34.565 35.3815H39.5577V28.7468H32.5729V39.17H34.5651V35.3815H34.565ZM34.5651 30.7391H37.5654V33.3892H34.5651V30.7391Z" fill="black"/>
<path d="M41.1934 28.8203H43.1856V39.1699H41.1934V28.8203Z" fill="black"/>
<path d="M59.9592 0C57.3255 0 55.1826 2.14286 55.1826 4.77661C55.1826 7.06875 56.8059 8.98822 58.963 9.44776V24.0472H57.8845V26.0395H60.9552V9.4479C63.1124 8.98848 64.7357 7.06889 64.7357 4.77661C64.7357 2.14286 62.593 0 59.9592 0V0ZM59.9592 7.56084C58.4239 7.56084 57.1749 6.31183 57.1749 4.77661C57.1749 3.24125 58.4239 1.99225 59.9592 1.99225C61.4944 1.99225 62.7435 3.24125 62.7435 4.77661C62.7435 6.3117 61.4943 7.56084 59.9592 7.56084Z" fill="black"/>
<path d="M8.19554 9.55308C10.4591 9.55308 12.3587 7.96978 12.8484 5.85282H23.0813V9.90757H25.0736V3.86044H12.8829C12.4543 1.66366 10.5158 0 8.19554 0C5.56179 0 3.41907 2.14286 3.41907 4.77661C3.41907 7.41036 5.56166 9.55308 8.19554 9.55308ZM8.19554 1.99225C9.73077 1.99225 10.9798 3.24125 10.9798 4.77661C10.9798 6.31183 9.73077 7.56084 8.19554 7.56084C6.66032 7.56084 5.41131 6.31183 5.41131 4.77661C5.41118 3.24125 6.66019 1.99225 8.19554 1.99225Z" fill="black"/>
<path d="M58.398 58.447C56.0408 58.447 54.0781 60.164 53.6917 62.4125H43.5124V58.3019H41.5201V64.4048H53.7695C54.2967 66.469 56.1719 68 58.398 68C61.0318 68 63.1745 65.8571 63.1745 63.2234C63.1745 60.5896 61.0318 58.447 58.398 58.447ZM58.398 66.0078C56.8627 66.0078 55.6137 64.7587 55.6137 63.2234C55.6137 61.6882 56.8627 60.4392 58.398 60.4392C59.9333 60.4392 61.1823 61.6882 61.1823 63.2234C61.1823 64.7587 59.9333 66.0078 58.398 66.0078Z" fill="black"/>
<path d="M9.03726 58.5523V44.3509H9.43836V42.3586H7.04501V58.5523C4.88781 59.0117 3.26453 60.9313 3.26453 63.2236C3.26453 65.8573 5.40725 68.0002 8.041 68.0002C10.6748 68.0002 12.8175 65.8573 12.8175 63.2236C12.8175 60.9314 11.1943 59.012 9.03726 58.5523ZM8.041 66.0078C6.50578 66.0078 5.25677 64.7588 5.25677 63.2234C5.25677 61.6882 6.50578 60.4392 8.041 60.4392C9.57623 60.4392 10.8252 61.6882 10.8252 63.2234C10.8252 64.7588 9.57623 66.0078 8.041 66.0078Z" fill="black"/>
<path d="M50.6502 33.9953C50.6499 31.2904 50.0182 28.6384 48.7658 26.2054L50.537 25.2936C51.924 27.9875 52.6421 30.9504 52.6425 33.9952L50.6502 33.9953ZM47.8137 24.5833C47.468 24.0626 47.0893 23.5553 46.6881 23.075L48.2171 21.7977C48.6648 22.3338 49.0876 22.9002 49.4734 23.4812L47.8137 24.5833ZM45.4044 21.6976C44.9525 21.2631 44.4726 20.8495 43.9785 20.4688L45.1945 18.8905C45.7459 19.3155 46.2813 19.7768 46.7853 20.2614L45.4044 21.6976Z" fill="black"/>
</g>
<defs>
<clipPath id="clip0_628_2949">
<rect width="68" height="68" fill="white"/>
</clipPath>
</defs>
</svg>
