<svg width="36" height="36" viewBox="0 0 36 36" fill="none" xmlns="http://www.w3.org/2000/svg">
<path d="M17.8839 32.9886C17.922 32.9962 17.9613 33 18 33C18.0386 33 18.0779 32.9962 18.116 32.9886C18.2273 32.9666 29.2248 30.6375 29.2248 17.083V8.02236C29.2248 7.69102 28.9564 7.42236 28.6248 7.42236C26.6894 7.42236 25.115 5.70762 25.115 3.6C25.115 3.26865 24.8466 3 24.515 3H11.4849C11.1533 3 10.8849 3.26865 10.8849 3.6C10.8849 5.70762 9.3105 7.42236 7.37515 7.42236C7.04351 7.42236 6.77515 7.69102 6.77515 8.02236V17.083C6.77515 30.6375 17.7726 32.9666 17.8839 32.9886ZM7.97515 8.58193C10.1056 8.2916 11.796 6.47754 12.0515 4.2H23.9484C24.2039 6.47754 25.8943 8.2916 28.0248 8.58193V17.083C28.0248 29.0317 19.2 31.505 18.0029 31.7851C16.8867 31.51 7.97515 28.9348 7.97515 17.083V8.58193Z" fill="#F8B249"/>
<path d="M12.8877 23.55H23.1123C23.444 23.55 23.7123 23.2813 23.7123 22.95C23.7123 20.5794 22.2606 18.5424 20.1999 17.6791C21.0461 17.021 21.5936 15.9962 21.5936 14.8436C21.5936 12.8619 19.9817 11.25 18 11.25C16.0184 11.25 14.4065 12.8619 14.4065 14.8436C14.4065 15.9962 14.954 17.021 15.8002 17.6791C13.7395 18.5425 12.2877 20.5794 12.2877 22.95C12.2877 23.2813 12.5561 23.55 12.8877 23.55ZM15.6065 14.8436C15.6065 13.5237 16.6805 12.45 18 12.45C19.3196 12.45 20.3936 13.5237 20.3936 14.8436C20.3936 16.1637 19.3196 17.2374 18 17.2374C16.6805 17.2374 15.6065 16.1637 15.6065 14.8436ZM18 18.4374C20.2846 18.4374 22.1783 20.1442 22.4725 22.35H13.5276C13.8217 20.1442 15.7155 18.4374 18 18.4374Z" fill="black"/>
</svg>
