<svg width="36" height="36" viewBox="0 0 36 36" fill="none" xmlns="http://www.w3.org/2000/svg">
<g clip-path="url(#clip0_249_902)">
<path d="M18 9.81816C13.4813 9.81816 9.81812 13.4813 9.81812 18C9.81812 22.5187 13.4813 26.1818 18 26.1818C22.5187 26.1818 26.1818 22.5187 26.1818 18C26.1818 13.4813 22.5187 9.81816 18 9.81816ZM18 24.5455C14.385 24.5455 11.4545 21.615 11.4545 18C11.4545 14.385 14.385 11.4545 18 11.4545C21.6149 11.4545 24.5454 14.385 24.5454 18C24.5454 21.615 21.6149 24.5455 18 24.5455Z" fill="black"/>
<path d="M34.7973 14.4L33.0628 13.9664C32.7101 12.6484 32.1846 11.3829 31.5001 10.2028L32.4246 8.66461C32.7996 8.16237 32.7996 7.47323 32.4246 6.97099L29.0291 3.57553C28.8344 3.3807 28.5682 3.27424 28.2928 3.28099C27.9534 3.29365 27.6233 3.39525 27.3355 3.57553L25.7891 4.5C24.6107 3.81973 23.3481 3.29702 22.0336 2.94546L21.6 1.2027C21.4118 0.613617 21.06 0 20.3973 0H15.6028C14.9401 0 14.5555 0.613617 14.4001 1.2027L13.9665 2.94539C12.652 3.29695 11.3894 3.81966 10.211 4.49993L8.66461 3.57539C8.37759 3.39223 8.04748 3.28781 7.7073 3.2727C7.43189 3.26595 7.16576 3.3724 6.97092 3.56723L3.57546 6.97092C3.20048 7.47316 3.20048 8.1623 3.57546 8.66454L4.5 10.2027C3.81537 11.3828 3.28985 12.6483 2.9373 13.9663L1.2027 14.4C0.613617 14.5473 0 14.94 0 15.6027V20.4054C0 21.0681 0.613617 21.4199 1.2027 21.6081L2.93723 22.0417C3.28971 23.3597 3.81523 24.6253 4.49993 25.8053L3.57539 27.3353C3.18923 27.8338 3.18923 28.5304 3.57539 29.0289L6.97085 32.4244C7.15894 32.6133 7.41621 32.7168 7.6827 32.7108C8.02772 32.6926 8.36381 32.5946 8.66454 32.4244L10.2109 31.5C11.3893 32.1803 12.6519 32.703 13.9664 33.0545L14.4 34.7972C14.5473 35.3863 14.94 35.9999 15.6027 35.9999H20.4054C21.0681 35.9999 21.4199 35.3863 21.6081 34.7972L22.0417 33.0545C23.3561 32.703 24.6188 32.1803 25.7972 31.5L27.3435 32.4245C27.6444 32.5943 27.9804 32.6924 28.3254 32.7109C28.5919 32.7169 28.8491 32.6134 29.0372 32.4245L32.4327 29.0291C32.8189 28.5306 32.8189 27.8339 32.4327 27.3355L31.5 25.7973C32.1848 24.6172 32.7102 23.3517 33.0627 22.0337L34.7972 21.6001C35.3863 21.4119 35.9999 21.0601 35.9999 20.3974V15.6028C36 14.94 35.3864 14.5473 34.7973 14.4ZM34.3636 20.0209L32.7272 20.4382C32.15 20.5812 31.6959 21.026 31.5409 21.6001C31.2239 22.7775 30.7535 23.9081 30.1418 24.9628C29.8495 25.4691 29.8495 26.0928 30.1418 26.5991L31.0418 28.0965L28.1454 31.001L26.6481 30.1091C26.1418 29.8169 25.518 29.8169 25.0117 30.1091C23.9591 30.7174 22.8313 31.185 21.6572 31.5001C21.0758 31.6363 20.6149 32.0785 20.4545 32.6537L20.029 34.3637H15.979L15.5454 32.6537C15.4024 32.0765 14.9576 31.6223 14.3835 31.4673C13.2094 31.1522 12.0816 30.6847 11.029 30.0764C10.5227 29.7841 9.89894 29.7841 9.39262 30.0764L7.87901 30.9928L4.99901 28.1373L5.89901 26.6318C6.1913 26.1255 6.1913 25.5018 5.89901 24.9955C5.28673 23.941 4.81634 22.8104 4.5 21.6327C4.35298 21.0566 3.90509 20.6055 3.33 20.4545L1.69362 20.0372H1.63631V15.9791L3.32993 15.5455C3.90712 15.4025 4.36127 14.9577 4.51631 14.3836C4.83265 13.206 5.30304 12.0753 5.91539 11.0209C6.20768 10.5146 6.20768 9.89086 5.91539 9.38454L5.00723 7.87908L7.8627 4.99908L9.37631 5.90723C9.88263 6.19952 10.5064 6.19952 11.0127 5.90723C12.065 5.2984 13.1929 4.83075 14.3672 4.51631C14.9434 4.36929 15.3944 3.9214 15.5454 3.34631L15.979 1.63631H20.0209L20.4545 3.34631C20.5974 3.92351 21.0422 4.37766 21.6163 4.53269C22.7907 4.8472 23.9185 5.31485 24.9709 5.92362C25.4772 6.21591 26.1009 6.21591 26.6072 5.92362L28.1209 5.01546L31.0009 7.85454L30.109 9.33546C29.8167 9.84178 29.8167 10.4655 30.109 10.9718C30.7207 12.0266 31.1911 13.1572 31.5081 14.3345C31.6432 14.9212 32.0894 15.3862 32.6699 15.5455L34.3635 15.9709V20.0209H34.3636Z" fill="#F8B249"/>
</g>
<defs>
<clipPath id="clip0_249_902">
<rect width="36" height="36" fill="white"/>
</clipPath>
</defs>
</svg>
