<svg width="36" height="36" viewBox="0 0 36 36" fill="none" xmlns="http://www.w3.org/2000/svg">
<path d="M30.78 33H3.71997V2.22H30.78V13.86H29.22V3.78H5.27997V31.5H29.22V26.64H30.78V33Z" fill="#F8B249"/>
<path d="M24.78 29.28C19.8 29.28 15.78 25.26 15.78 20.28C15.78 15.3 19.8 11.28 24.78 11.28C29.76 11.28 33.78 15.3 33.78 20.28C33.78 25.26 29.7 29.28 24.78 29.28ZM24.78 12.78C20.64 12.78 17.28 16.14 17.28 20.28C17.28 24.42 20.64 27.78 24.78 27.78C28.92 27.78 32.28 24.42 32.28 20.28C32.28 16.14 28.86 12.78 24.78 12.78Z" fill="black"/>
<path d="M9.51611 34.4084L18.3819 25.5426L19.4424 26.6031L10.5766 35.4689L9.51611 34.4084Z" fill="black"/>
<path d="M8.28003 6.72H26.28V8.22H8.28003V6.72Z" fill="black"/>
<path d="M8.28003 11.22H16.56V12.72H8.28003V11.22Z" fill="black"/>
</svg>
