<svg width="125" height="125" viewBox="0 0 125 125" fill="none" xmlns="http://www.w3.org/2000/svg">
<path d="M125 62.5C125 97.0178 97.0178 125 62.5 125C27.9822 125 0 97.0178 0 62.5C0 27.9822 27.9822 0 62.5 0C97.0178 0 125 27.9822 125 62.5ZM32.6144 62.5C32.6144 79.0054 45.9946 92.3856 62.5 92.3856C79.0054 92.3856 92.3856 79.0054 92.3856 62.5C92.3856 45.9946 79.0054 32.6144 62.5 32.6144C45.9946 32.6144 32.6144 45.9946 32.6144 62.5Z" fill="#D9D9D9"/>
<path d="M123.485 48.8225C126.292 61.3375 125.18 74.4131 120.301 86.2748C115.423 98.1365 107.012 108.21 96.2123 115.128C85.4123 122.046 72.7453 125.475 59.9302 124.947C47.1151 124.42 34.7726 119.963 24.5775 112.18C14.3824 104.398 6.82836 93.6676 2.94053 81.4452C-0.947292 69.2227 -0.980663 56.1001 2.84495 43.858C6.67056 31.6159 14.1699 20.8472 24.3253 13.0132C34.4807 5.17921 46.8004 0.659261 59.6126 0.0667309L61.1193 32.6463C54.9929 32.9296 49.102 35.0909 44.246 38.8369C39.39 42.5829 35.8041 47.7322 33.9748 53.586C32.1455 59.4397 32.1614 65.7146 34.0205 71.559C35.8795 77.4034 39.4916 82.5344 44.3666 86.2556C49.2416 89.9768 55.1434 92.1082 61.2712 92.3603C67.399 92.6125 73.456 90.9733 78.6202 87.6652C83.7845 84.3571 87.806 79.5403 90.1389 73.8684C92.4719 68.1965 93.0033 61.9441 91.6612 55.9598L123.485 48.8225Z" fill="#F5F5F5"/>
</svg>
