<svg width="30" height="36" viewBox="0 0 30 36" fill="none" xmlns="http://www.w3.org/2000/svg">
<path d="M1.90999 18.08C2.49448 18.5679 2.98476 19.1586 3.35657 19.823C3.55133 20.5253 3.61377 21.2578 3.54079 21.983C3.51196 23.2526 3.48081 24.6919 4.39338 25.6075C4.83022 26.0186 5.38386 26.284 5.97799 26.3671L3.19106 31.1964C2.95481 31.5991 2.97366 32.1024 3.23929 32.4863C3.505 32.8703 3.96926 33.0653 4.42938 32.9862L7.2907 32.4876L8.29509 35.2236C8.45695 35.6566 8.85435 35.9572 9.3151 35.9951C9.35046 35.9982 9.3859 35.9999 9.42071 35.9999C9.84961 36.0001 10.246 35.7714 10.4605 35.4L13.7652 29.6652C14.5264 30.1116 15.4694 30.1116 16.2306 29.6652L19.5389 35.4047C19.755 35.7745 20.1517 36.0011 20.5799 35.9994C20.6147 35.9994 20.65 35.9994 20.6855 35.9946C21.1496 35.9561 21.5492 35.6517 21.7096 35.2146L22.711 32.4853L25.5765 32.9839C26.0346 33.0599 26.4954 32.8649 26.7597 32.4832C27.024 32.1015 27.0443 31.6015 26.8119 31.1995L24.022 26.3666C24.616 26.2831 25.1696 26.0175 25.6066 25.6064C26.5215 24.6908 26.4879 23.2514 26.4592 21.9818C26.3862 21.2566 26.4486 20.5242 26.6434 19.8219C27.0152 19.1575 27.5055 18.5667 28.09 18.0789C29.029 17.1742 29.9998 16.237 29.9998 14.9998C29.9998 13.7626 29.029 12.8254 28.09 11.9194C27.5055 11.4316 27.0152 10.8409 26.6434 10.1765C26.4486 9.47416 26.3862 8.74173 26.4592 8.01654C26.488 6.74693 26.5191 5.30759 25.6066 4.39199C24.694 3.4764 23.251 3.5124 21.982 3.54003C21.2568 3.61337 20.5243 3.55093 19.8221 3.35582C19.1587 2.98387 18.569 2.49359 18.0821 1.90923C17.1743 0.970788 16.2371 0 14.9999 0C13.7627 0 12.8262 0.970788 11.9196 1.90916C11.4327 2.49359 10.843 2.98401 10.1796 3.35631C9.4771 3.55037 8.7448 3.61287 8.01961 3.54052C6.75183 3.51233 5.31066 3.48055 4.39507 4.39312C3.47948 5.30569 3.51372 6.74805 3.54247 8.01766C3.61546 8.74285 3.55302 9.47529 3.35826 10.1776C2.98645 10.842 2.49617 11.4328 1.91167 11.9206C0.97091 12.8253 0.00012207 13.7625 0.00012207 14.9997C0.00012207 16.2369 0.97098 17.1741 1.90999 18.08ZM9.42 34.8024L8.41624 32.067C8.21276 31.5273 7.65526 31.2076 7.08665 31.3044L4.22773 31.7994L7.30504 26.4673C7.54501 26.4673 7.78506 26.4642 8.01786 26.4589C8.74305 26.3863 9.47541 26.4488 10.1778 26.6431C10.8412 27.0151 11.4309 27.5053 11.9178 28.0897C12.2034 28.3855 12.4926 28.6807 12.7926 28.9513L9.42 34.8024ZM25.7781 31.8024L22.912 31.3038C22.3425 31.2097 21.7861 31.5318 21.5842 32.0724L20.5798 34.7994L17.2085 28.9507C17.5085 28.6807 17.7977 28.3855 18.0826 28.0903C18.5695 27.5058 19.1592 27.0154 19.8226 26.6431C20.525 26.4484 21.2574 26.3859 21.9826 26.4589C22.2154 26.4643 22.4554 26.4679 22.6954 26.4679L25.7781 31.8024ZM2.74275 12.7828C3.4536 12.1884 4.03894 11.4584 4.46475 10.6354C4.7327 9.78093 4.82636 8.88137 4.74016 7.9901C4.71555 6.91012 4.68918 5.79414 5.24176 5.24156C5.79433 4.68899 6.90736 4.71416 7.99029 4.7406C8.88184 4.82525 9.78133 4.73146 10.6362 4.46462C11.4588 4.03847 12.1885 3.4532 12.783 2.74263C13.5492 1.94945 14.2727 1.20007 15 1.20007C15.7271 1.20007 16.4513 1.94945 17.2199 2.74326C17.8145 3.45376 18.5444 4.03889 19.3673 4.46462C20.2219 4.73181 21.1213 4.82567 22.0126 4.7406C23.0926 4.71662 24.2092 4.68962 24.7611 5.24156C25.3132 5.79358 25.2874 6.91075 25.2627 7.9901C25.1765 8.88144 25.2702 9.781 25.5382 10.6354C25.9639 11.4584 26.5493 12.1884 27.2602 12.7828C28.0503 13.549 28.7998 14.2726 28.7998 14.9998C28.7998 15.7269 28.0504 16.4506 27.2572 17.2197C26.5464 17.8141 25.961 18.5441 25.5352 19.3671C25.2672 20.2216 25.1736 21.1212 25.2598 22.0124C25.2844 23.0924 25.3108 24.2084 24.7582 24.761C24.2056 25.3135 23.092 25.2872 22.0097 25.2619C21.1181 25.1767 20.2185 25.2705 19.3637 25.5379C18.5411 25.9641 17.8114 26.5493 17.217 27.2599C16.4508 28.05 15.7272 28.7995 15 28.7995C14.2728 28.7995 13.5486 28.0501 12.783 27.2563C12.1884 26.5458 11.4585 25.9607 10.6356 25.5349C10.0115 25.315 9.35082 25.2176 8.68982 25.2481C8.45702 25.2481 8.22246 25.2536 7.99022 25.259C6.91024 25.2853 5.79426 25.3099 5.24169 24.758C4.68911 24.2061 4.71548 23.0888 4.74009 22.0095C4.82629 21.1181 4.73263 20.2186 4.46468 19.3641C4.03859 18.5422 3.45325 17.8133 2.74268 17.2198C1.9495 16.4506 1.20012 15.727 1.20012 14.9999C1.20019 14.2726 1.94957 13.549 2.74275 12.7828Z" fill="#F8B249"/>
<path d="M11.5751 19.6244C11.7968 19.8458 12.1514 19.8593 12.3893 19.6557L20.7892 12.4558C20.9614 12.3192 21.0451 12.0995 21.0075 11.883C20.9699 11.6665 20.8169 11.4878 20.6088 11.4174C20.4007 11.3469 20.1706 11.3958 20.0092 11.545L12.0294 18.3848L10.0218 16.3779C9.78641 16.1505 9.41215 16.1537 9.18075 16.3852C8.94929 16.6167 8.94605 16.9909 9.17344 17.2263L11.5751 19.6244Z" fill="black"/>
<path d="M15 24.5996C20.3018 24.5996 24.5998 20.3016 24.5998 14.9998C24.5998 9.69796 20.3018 5.3999 15 5.3999C9.69806 5.3999 5.40015 9.69789 5.40015 14.9997C5.4064 20.299 9.70074 24.5933 15 24.5996ZM15 6.59991C19.6391 6.59991 23.3998 10.3606 23.3998 14.9998C23.3998 19.6389 19.6391 23.3996 15 23.3996C10.3608 23.3996 6.60008 19.6389 6.60008 14.9997C6.60507 10.3627 10.3629 6.60483 15 6.59991Z" fill="#F8B249"/>
</svg>
