<svg width="24" height="24" viewBox="0 0 24 24" fill="none" xmlns="http://www.w3.org/2000/svg">
<path d="M17.1902 0.21967C17.0496 0.0790176 16.8588 0 16.6599 0H7.3401C7.14118 0 6.95042 0.0790176 6.80977 0.21967L0.21967 6.80977C0.0790176 6.95042 0 7.14118 0 7.3401V16.6599C0 16.8588 0.0790176 17.0496 0.21967 17.1902L6.80977 23.7803C6.95042 23.921 7.14118 24 7.3401 24H16.6599C16.8588 24 17.0496 23.921 17.1902 23.7803L23.7803 17.1902C23.921 17.0496 24 16.8588 24 16.6599V7.3401C24 7.14118 23.921 6.95042 23.7803 6.80977L17.1902 0.21967ZM12 6C12.8031 6 13.4307 6.69343 13.3507 7.49256L12.8246 12.7537C12.7823 13.1774 12.4258 13.5 12 13.5C11.5742 13.5 11.2177 13.1774 11.1754 12.7537L10.6493 7.49256C10.5693 6.69343 11.1969 6 12 6ZM12.0023 15C12.8307 15 13.5023 15.6716 13.5023 16.5C13.5023 17.3284 12.8307 18 12.0023 18C11.1739 18 10.5023 17.3284 10.5023 16.5C10.5023 15.6716 11.1739 15 12.0023 15Z" fill="#F83030"/>
</svg>
