<svg width="36" height="36" viewBox="0 0 36 36" fill="none" xmlns="http://www.w3.org/2000/svg">
<path d="M21.3984 13.0029H14.6016C14.4489 13.0029 14.3024 12.9422 14.1943 12.8342C14.0863 12.7262 14.0256 12.5797 14.0256 12.4269V5.63011C14.0256 5.47735 14.0863 5.33084 14.1943 5.22282C14.3024 5.1148 14.4489 5.05411 14.6016 5.05411H21.3984C21.5512 5.05411 21.6977 5.1148 21.8057 5.22282C21.9137 5.33084 21.9744 5.47735 21.9744 5.63011V12.4269C21.9744 12.5797 21.9137 12.7262 21.8057 12.8342C21.6977 12.9422 21.5512 13.0029 21.3984 13.0029ZM15.1776 11.8509H20.8224V6.20611H15.1776V11.8509Z" fill="#F8B249"/>
<path d="M8.35003 30.9447H1.55525C1.40248 30.9447 1.25598 30.8841 1.14795 30.776C1.03993 30.668 0.979248 30.5215 0.979248 30.3687V23.5719C0.979248 23.4192 1.03993 23.2727 1.14795 23.1646C1.25598 23.0566 1.40248 22.9959 1.55525 22.9959H8.35205C8.50481 22.9959 8.65132 23.0566 8.75934 23.1646C8.86736 23.2727 8.92805 23.4192 8.92805 23.5719V30.3687C8.92805 30.4445 8.91308 30.5196 8.88401 30.5896C8.85494 30.6596 8.81233 30.7232 8.75863 30.7767C8.70493 30.8303 8.64119 30.8726 8.57108 30.9015C8.50096 30.9303 8.42584 30.945 8.35003 30.9447ZM2.12923 29.7927H7.77403V24.1479H2.13125L2.12923 29.7927Z" fill="#F8B249"/>
<path d="M21.3984 30.9447H14.6016C14.4489 30.9447 14.3024 30.8841 14.1943 30.776C14.0863 30.668 14.0256 30.5215 14.0256 30.3687V23.5719C14.0256 23.4192 14.0863 23.2727 14.1943 23.1646C14.3024 23.0566 14.4489 22.9959 14.6016 22.9959H21.3984C21.5512 22.9959 21.6977 23.0566 21.8057 23.1646C21.9137 23.2727 21.9744 23.4192 21.9744 23.5719V30.3687C21.9744 30.5215 21.9137 30.668 21.8057 30.776C21.6977 30.8841 21.5512 30.9447 21.3984 30.9447ZM15.1776 29.7927H20.8224V24.1479H15.1776V29.7927Z" fill="#F8B249"/>
<path d="M34.4448 30.9447H27.648C27.4953 30.9447 27.3487 30.8841 27.2407 30.776C27.1327 30.668 27.072 30.5215 27.072 30.3687V23.5719C27.072 23.4192 27.1327 23.2727 27.2407 23.1646C27.3487 23.0566 27.4953 22.9959 27.648 22.9959H34.4448C34.5976 22.9959 34.7441 23.0566 34.8521 23.1646C34.9601 23.2727 35.0208 23.4192 35.0208 23.5719V30.3687C35.0208 30.5215 34.9601 30.668 34.8521 30.776C34.7441 30.8841 34.5976 30.9447 34.4448 30.9447ZM28.224 29.7927H33.8688V24.1479H28.224V29.7927Z" fill="#F8B249"/>
<path d="M17.4246 14.6039H18.5766V18H17.4246V14.6039Z" fill="black"/>
<path d="M17.424 18.0026H18.576V21.3987H17.424V18.0026Z" fill="black"/>
<path d="M31.6238 21.3984H30.4718V18.576H5.52956V21.3984H4.37756V18.0026C4.37749 17.8496 4.43806 17.7027 4.54603 17.5943C4.65399 17.4858 4.80054 17.4246 4.95356 17.424H31.0492C31.202 17.424 31.3485 17.4847 31.4565 17.5927C31.5646 17.7007 31.6252 17.8472 31.6252 18L31.6238 21.3984Z" fill="black"/>
</svg>
