<svg width="36" height="36" viewBox="0 0 36 36" fill="none" xmlns="http://www.w3.org/2000/svg">
<g clip-path="url(#clip0_249_883)">
<path d="M17.9999 36C17.927 36 17.8545 35.9893 17.7847 35.9685C13.8029 34.8817 10.2129 32.6835 7.43469 29.631C-0.231806 21.123 1.55619 9.5205 1.99194 7.281C2.01636 7.15617 2.07212 7.03959 2.15399 6.94224C2.23586 6.84489 2.34115 6.76996 2.45994 6.7245C4.77744 5.83725 7.07019 4.905 9.27594 3.95325C12.1132 2.73075 14.9189 1.43475 17.6182 0.0997488C17.7294 0.0369046 17.8546 0.00263885 17.9823 2.10258e-05C18.1101 -0.0025968 18.2365 0.0265151 18.3502 0.0847488C21.0584 1.425 23.8762 2.72625 26.7239 3.9525C28.9297 4.905 31.2239 5.83725 33.5399 6.7275C33.6587 6.77296 33.764 6.84789 33.8459 6.94524C33.9278 7.04259 33.9835 7.15916 34.0079 7.284C34.4437 9.5235 36.2317 21.126 28.5629 29.634C25.7924 32.6783 22.214 34.873 18.2444 35.9625C18.1656 35.9884 18.083 36.0011 17.9999 36ZM3.39069 7.97325C2.97969 10.4347 1.70769 21.0352 8.54994 28.626C11.0923 31.4184 14.366 33.4428 17.9999 34.47C21.6339 33.4428 24.9076 31.4184 27.4499 28.626C34.2914 21.0352 33.0194 10.4347 32.6084 7.97325C30.4064 7.125 28.2299 6.237 26.1314 5.33025C23.3684 4.14075 20.6347 2.8815 17.9999 1.584C15.3652 2.8815 12.6314 4.14075 9.86844 5.334C7.76994 6.237 5.59344 7.125 3.39069 7.97325Z" fill="#F8B249"/>
<path d="M18 25.5C16.0109 25.5 14.1032 24.7098 12.6967 23.3033C11.2902 21.8968 10.5 19.9891 10.5 18C10.5 16.0109 11.2902 14.1032 12.6967 12.6967C14.1032 11.2902 16.0109 10.5 18 10.5C18.1989 10.5 18.3897 10.579 18.5303 10.7197C18.671 10.8603 18.75 11.0511 18.75 11.25C18.75 11.4489 18.671 11.6397 18.5303 11.7803C18.3897 11.921 18.1989 12 18 12C16.8133 12 15.6533 12.3519 14.6666 13.0112C13.6799 13.6705 12.9108 14.6075 12.4567 15.7039C12.0026 16.8003 11.8838 18.0067 12.1153 19.1705C12.3468 20.3344 12.9182 21.4035 13.7574 22.2426C14.5965 23.0818 15.6656 23.6532 16.8295 23.8847C17.9933 24.1162 19.1997 23.9974 20.2961 23.5433C21.3925 23.0892 22.3295 22.3201 22.9888 21.3334C23.6481 20.3467 24 19.1867 24 18C24 17.8011 24.079 17.6103 24.2197 17.4697C24.3603 17.329 24.5511 17.25 24.75 17.25C24.9489 17.25 25.1397 17.329 25.2803 17.4697C25.421 17.6103 25.5 17.8011 25.5 18C25.4978 19.9885 24.7069 21.8948 23.3009 23.3009C21.8948 24.7069 19.9885 25.4978 18 25.5Z" fill="black"/>
<path d="M18.75 20.25C18.5511 20.25 18.3604 20.1709 18.2198 20.0302L15.2198 17.0302C15.0955 16.8872 15.0299 16.7024 15.0363 16.513C15.0427 16.3236 15.1206 16.1436 15.2542 16.0093C15.3879 15.8749 15.5675 15.7962 15.7569 15.7888C15.9462 15.7815 16.1314 15.8461 16.275 15.9697L18.6825 18.3772L24.1575 11.5312C24.2191 11.4543 24.2952 11.3903 24.3815 11.3428C24.4678 11.2953 24.5626 11.2652 24.6606 11.2544C24.7585 11.2435 24.8576 11.252 24.9522 11.2795C25.0468 11.3069 25.1351 11.3527 25.212 11.4142C25.289 11.4758 25.353 11.5519 25.4005 11.6382C25.448 11.7245 25.4781 11.8193 25.4889 11.9173C25.4998 12.0152 25.4913 12.1143 25.4638 12.2089C25.4364 12.3035 25.3906 12.3918 25.329 12.4687L19.329 19.9687C19.2631 20.051 19.1807 20.1184 19.087 20.1666C18.9933 20.2148 18.8905 20.2427 18.7853 20.2485L18.75 20.25Z" fill="black"/>
</g>
<defs>
<clipPath id="clip0_249_883">
<rect width="36" height="36" fill="white"/>
</clipPath>
</defs>
</svg>
