<svg width="68" height="68" viewBox="0 0 68 68" fill="none" xmlns="http://www.w3.org/2000/svg">
<path d="M12.8066 21.3066C8.15997 21.3066 4.30664 17.4533 4.30664 12.8066C4.30664 8.15997 8.15997 4.30664 12.8066 4.30664C17.4533 4.30664 21.3066 8.15997 21.3066 12.8066C21.3066 17.4533 17.4533 21.3066 12.8066 21.3066ZM12.8066 7.13997C9.63331 7.13997 7.13997 9.63331 7.13997 12.8066C7.13997 15.98 9.63331 18.4733 12.8066 18.4733C15.98 18.4733 18.4733 15.98 18.4733 12.8066C18.4733 9.63331 15.8666 7.13997 12.8066 7.13997Z" fill="#F8B249"/>
<path d="M12.8066 42.5C8.15997 42.5 4.30664 38.6467 4.30664 34C4.30664 29.3533 8.15997 25.5 12.8066 25.5C17.4533 25.5 21.3066 29.3533 21.3066 34C21.3066 38.6467 17.4533 42.5 12.8066 42.5ZM12.8066 28.3333C9.63331 28.3333 7.13997 30.8267 7.13997 34C7.13997 37.1733 9.63331 39.6667 12.8066 39.6667C15.98 39.6667 18.4733 37.1733 18.4733 34C18.4733 30.8267 15.8666 28.3333 12.8066 28.3333Z" fill="#F8B249"/>
<path d="M12.8066 63.8066C8.15997 63.8066 4.30664 59.9533 4.30664 55.3066C4.30664 50.66 8.15997 46.8066 12.8066 46.8066C17.4533 46.8066 21.3066 50.66 21.3066 55.3066C21.3066 59.9533 17.4533 63.8066 12.8066 63.8066ZM12.8066 49.64C9.63331 49.64 7.13997 52.1333 7.13997 55.3066C7.13997 58.48 9.63331 60.9733 12.8066 60.9733C15.98 60.9733 18.4733 58.48 18.4733 55.3066C18.4733 52.1333 15.8666 49.64 12.8066 49.64Z" fill="#F8B249"/>
<path d="M25.5 11.3334H60.9733V14.1667H25.5V11.3334Z" fill="black"/>
<path d="M25.5 32.5266H60.9733V35.3599H25.5V32.5266Z" fill="black"/>
<path d="M25.5 53.8334H60.9733V56.6667H25.5V53.8334Z" fill="black"/>
</svg>
