<svg width="68" height="68" viewBox="0 0 68 68" fill="none" xmlns="http://www.w3.org/2000/svg">
<path d="M54.643 30.5393L47.8673 37.3126L44.9287 34.3546C44.7007 34.1269 44.3916 33.9991 44.0693 33.9993C43.7471 33.9996 43.4382 34.1278 43.2105 34.3558C42.9828 34.5838 42.855 34.8929 42.8552 35.2151C42.8555 35.5374 42.9837 35.8463 43.2117 36.074L47.027 39.8893C47.2547 40.1169 47.5635 40.2448 47.8855 40.2448C48.2075 40.2448 48.5163 40.1169 48.744 39.8893L56.3794 32.2563C56.4954 32.1443 56.5879 32.0103 56.6515 31.8621C56.7152 31.714 56.7487 31.5546 56.7501 31.3934C56.7515 31.2322 56.7207 31.0723 56.6597 30.9231C56.5986 30.7738 56.5085 30.6382 56.3945 30.5242C56.2804 30.4102 56.1449 30.3201 55.9956 30.259C55.8464 30.1979 55.6865 30.1672 55.5253 30.1686C55.364 30.17 55.2047 30.2035 55.0566 30.2672C54.9084 30.3308 54.7744 30.4233 54.6624 30.5393H54.643Z" fill="black"/>
<path d="M64.3571 35.2143C64.3507 31.7741 63.1286 28.4468 60.9066 25.8205C58.6846 23.1941 55.6059 21.4376 52.2143 20.8614V14.5714C52.2145 14.4118 52.1834 14.2538 52.1225 14.1063C52.0617 13.9587 51.9724 13.8247 51.8597 13.7117L42.1454 3.9974C42.0324 3.88471 41.8983 3.79539 41.7508 3.73455C41.6033 3.67371 41.4452 3.64254 41.2857 3.64282H12.1428C11.8208 3.64282 11.5119 3.77076 11.2842 3.99848C11.0565 4.2262 10.9285 4.53506 10.9285 4.85711V10.9285H4.85711C4.53506 10.9285 4.2262 11.0565 3.99848 11.2842C3.77076 11.5119 3.64282 11.8208 3.64282 12.1428V63.1428C3.64282 63.4649 3.77076 63.7737 3.99848 64.0015C4.2262 64.2292 4.53506 64.3571 4.85711 64.3571H46.1428C46.4649 64.3571 46.7737 64.2292 47.0015 64.0015C47.2292 63.7737 47.3571 63.4649 47.3571 63.1428V57.0714H51C51.322 57.0714 51.6309 56.9435 51.8586 56.7157C52.0863 56.488 52.2143 56.1792 52.2143 55.8571V49.5671C55.6059 48.9909 58.6846 47.2344 60.9066 44.608C63.1286 41.9817 64.3507 38.6544 64.3571 35.2143ZM42.5 7.7884L48.0687 13.3571H42.5V7.7884ZM44.9285 61.9285H6.07139V13.3571H10.9285V55.8571C10.9285 56.1792 11.0565 56.488 11.2842 56.7157C11.5119 56.9435 11.8208 57.0714 12.1428 57.0714H44.9285V61.9285ZM49.7857 54.6428H13.3571V6.0714H40.0714V14.5714C40.0714 14.8934 40.1993 15.2023 40.427 15.43C40.6548 15.6577 40.9636 15.7857 41.2857 15.7857H49.7857V20.6428C45.9211 20.6428 42.2148 22.178 39.4821 24.9107C36.7494 27.6434 35.2143 31.3497 35.2143 35.2143C35.2143 39.0788 36.7494 42.7851 39.4821 45.5178C42.2148 48.2505 45.9211 49.7857 49.7857 49.7857V54.6428ZM49.7857 47.3571C47.384 47.3571 45.0364 46.6449 43.0395 45.3107C41.0426 43.9764 39.4862 42.0799 38.5671 39.8611C37.6481 37.6423 37.4076 35.2008 37.8761 32.8453C38.3447 30.4898 39.5012 28.3262 41.1994 26.628C42.8976 24.9297 45.0612 23.7733 47.4167 23.3047C49.7722 22.8362 52.2137 23.0767 54.4326 23.9957C56.6514 24.9148 58.5478 26.4712 59.8821 28.468C61.2164 30.4649 61.9285 32.8126 61.9285 35.2143C61.9247 38.4336 60.6441 41.5199 58.3677 43.7963C56.0913 46.0727 53.005 47.3533 49.7857 47.3571Z" fill="#F8B249"/>
<path d="M25.5 33.1402L21.7406 36.9142L20.2834 35.4571C20.0557 35.2291 19.7468 35.1008 19.4246 35.1006C19.1023 35.1004 18.7932 35.2282 18.5652 35.4559C18.3372 35.6836 18.209 35.9925 18.2087 36.3147C18.2085 36.6369 18.3363 36.9461 18.564 37.1741L20.8784 39.4861C21.1061 39.7137 21.4149 39.8416 21.7369 39.8416C22.0589 39.8416 22.3677 39.7137 22.5954 39.4861L27.2218 34.8718C27.4499 34.6441 27.5781 34.3352 27.5783 34.0129C27.5785 33.6907 27.4507 33.3816 27.2231 33.1536C26.9954 32.9256 26.6864 32.7973 26.3642 32.7971C26.042 32.7969 25.7329 32.9247 25.5048 33.1524L25.5 33.1402Z" fill="black"/>
<path d="M25.5 42.8546L21.7406 46.6286L20.2834 45.1714C20.1707 45.0585 20.0368 44.9689 19.8894 44.9078C19.7421 44.8466 19.5841 44.8151 19.4246 44.815C19.265 44.8149 19.107 44.8462 18.9595 44.9071C18.8121 44.9681 18.6781 45.0575 18.5652 45.1702C18.4523 45.283 18.3627 45.4168 18.3016 45.5642C18.2404 45.7116 18.2089 45.8695 18.2087 46.0291C18.2086 46.1886 18.2399 46.3466 18.3009 46.4941C18.3618 46.6415 18.4512 46.7755 18.564 46.8884L20.8784 49.2004C21.1061 49.4281 21.4149 49.556 21.7369 49.556C22.0589 49.556 22.3677 49.4281 22.5954 49.2004L27.2218 44.5861C27.4499 44.3585 27.5781 44.0495 27.5783 43.7273C27.5785 43.4051 27.4507 43.0959 27.2231 42.8679C26.9954 42.6399 26.6864 42.5117 26.3642 42.5115C26.042 42.5112 25.7329 42.639 25.5048 42.8667L25.5 42.8546Z" fill="black"/>
<path d="M19.4286 13.3572H34.0001C34.3221 13.3572 34.631 13.2292 34.8587 13.0015C35.0864 12.7738 35.2144 12.4649 35.2144 12.1429C35.2144 11.8208 35.0864 11.512 34.8587 11.2842C34.631 11.0565 34.3221 10.9286 34.0001 10.9286H19.4286C19.1066 10.9286 18.7977 11.0565 18.57 11.2842C18.3423 11.512 18.2144 11.8208 18.2144 12.1429C18.2144 12.4649 18.3423 12.7738 18.57 13.0015C18.7977 13.2292 19.1066 13.3572 19.4286 13.3572Z" fill="black"/>
<path d="M34.0001 18.2142H19.4286C19.1066 18.2142 18.7977 18.3422 18.57 18.5699C18.3423 18.7976 18.2144 19.1065 18.2144 19.4285C18.2144 19.7506 18.3423 20.0594 18.57 20.2871C18.7977 20.5149 19.1066 20.6428 19.4286 20.6428H34.0001C34.3221 20.6428 34.631 20.5149 34.8587 20.2871C35.0864 20.0594 35.2144 19.7506 35.2144 19.4285C35.2144 19.1065 35.0864 18.7976 34.8587 18.5699C34.631 18.3422 34.3221 18.2142 34.0001 18.2142Z" fill="black"/>
<path d="M26.7144 25.5H19.4286C19.1066 25.5 18.7977 25.6279 18.57 25.8557C18.3423 26.0834 18.2144 26.3922 18.2144 26.7143C18.2144 27.0363 18.3423 27.3452 18.57 27.5729C18.7977 27.8006 19.1066 27.9286 19.4286 27.9286H26.7144C27.0364 27.9286 27.3453 27.8006 27.573 27.5729C27.8007 27.3452 27.9286 27.0363 27.9286 26.7143C27.9286 26.3922 27.8007 26.0834 27.573 25.8557C27.3453 25.6279 27.0364 25.5 26.7144 25.5Z" fill="black"/>
</svg>
