<svg width="15" height="19" viewBox="0 0 15 19" fill="none" xmlns="http://www.w3.org/2000/svg">
<path d="M0.328125 15.9787V14.6287H2.21812V7.74371C2.21812 6.48371 2.58937 5.36246 3.33187 4.37996C4.07437 3.39746 5.05312 2.77871 6.26812 2.52371V1.87121C6.26812 1.52621 6.39187 1.24121 6.63937 1.01621C6.88687 0.791211 7.18313 0.678711 7.52813 0.678711C7.87313 0.678711 8.16937 0.791211 8.41687 1.01621C8.66437 1.24121 8.78812 1.52621 8.78812 1.87121V2.52371C10.0031 2.77871 10.9856 3.39746 11.7356 4.37996C12.4856 5.36246 12.8606 6.48371 12.8606 7.74371V14.6287H14.7281V15.9787H0.328125ZM7.52813 18.6787C7.04813 18.6787 6.62812 18.5025 6.26812 18.15C5.90812 17.7975 5.72813 17.3737 5.72813 16.8787H9.32812C9.32812 17.3737 9.15188 17.7975 8.79938 18.15C8.44688 18.5025 8.02313 18.6787 7.52813 18.6787ZM3.56812 14.6287H11.5106V7.74371C11.5106 6.63371 11.1281 5.68871 10.3631 4.90871C9.59812 4.12871 8.66062 3.73871 7.55062 3.73871C6.44062 3.73871 5.49938 4.12871 4.72688 4.90871C3.95438 5.68871 3.56812 6.63371 3.56812 7.74371V14.6287Z" fill="white"/>
</svg>
