<svg width="68" height="68" viewBox="0 0 68 68" fill="none" xmlns="http://www.w3.org/2000/svg">
<path d="M64.8125 54.1875H63.75V47.8125C63.7483 47.2494 63.5239 46.7099 63.1257 46.3118C62.7276 45.9136 62.1881 45.6892 61.625 45.6875H51C50.4369 45.6892 49.8974 45.9136 49.4993 46.3118C49.1011 46.7099 48.8767 47.2494 48.875 47.8125V49.9375H47.8125C47.5307 49.9375 47.2605 50.0494 47.0612 50.2487C46.8619 50.448 46.75 50.7182 46.75 51V61.625C46.7525 62.4696 47.0892 63.2789 47.6864 63.8761C48.2836 64.4733 49.0929 64.81 49.9375 64.8125H62.6875C63.5321 64.81 64.3414 64.4733 64.9386 63.8761C65.5358 63.2789 65.8725 62.4696 65.875 61.625V55.25C65.875 54.9682 65.7631 54.698 65.5638 54.4987C65.3645 54.2994 65.0943 54.1875 64.8125 54.1875ZM51 47.8125H61.625V54.1875H59.9356L56.0044 50.2456C55.8018 50.0499 55.5317 49.9396 55.25 49.9375H51V47.8125ZM63.75 61.625C63.75 61.9068 63.6381 62.177 63.4388 62.3763C63.2395 62.5756 62.9693 62.6875 62.6875 62.6875H49.9375C49.6557 62.6875 49.3855 62.5756 49.1862 62.3763C48.9869 62.177 48.875 61.9068 48.875 61.625V52.0625H54.8144L58.7456 56.0044C58.9482 56.2001 59.2183 56.3104 59.5 56.3125H63.75V61.625Z" fill="#F8B249"/>
<path d="M64.8125 32.9375H63.75V26.5625C63.7483 25.9994 63.5239 25.4599 63.1257 25.0618C62.7276 24.6636 62.1881 24.4392 61.625 24.4375H51C50.4369 24.4392 49.8974 24.6636 49.4993 25.0618C49.1011 25.4599 48.8767 25.9994 48.875 26.5625V28.6875H47.8125C47.5307 28.6875 47.2605 28.7994 47.0612 28.9987C46.8619 29.198 46.75 29.4682 46.75 29.75V40.375C46.7525 41.2196 47.0892 42.0289 47.6864 42.6261C48.2836 43.2233 49.0929 43.56 49.9375 43.5625H62.6875C63.5321 43.56 64.3414 43.2233 64.9386 42.6261C65.5358 42.0289 65.8725 41.2196 65.875 40.375V34C65.875 33.7182 65.7631 33.448 65.5638 33.2487C65.3645 33.0494 65.0943 32.9375 64.8125 32.9375ZM51 26.5625H61.625V32.9375H59.9356L56.0044 28.9956C55.8018 28.7999 55.5317 28.6896 55.25 28.6875H51V26.5625ZM63.75 40.375C63.75 40.6568 63.6381 40.927 63.4388 41.1263C63.2395 41.3256 62.9693 41.4375 62.6875 41.4375H49.9375C49.6557 41.4375 49.3855 41.3256 49.1862 41.1263C48.9869 40.927 48.875 40.6568 48.875 40.375V30.8125H54.8144L58.7456 34.7544C58.9482 34.9501 59.2183 35.0604 59.5 35.0625H63.75V40.375Z" fill="#F8B249"/>
<path d="M64.8125 10.625H63.75V4.25C63.7483 3.68693 63.5239 3.14741 63.1257 2.74926C62.7276 2.3511 62.1881 2.12668 61.625 2.125H51C50.4369 2.12668 49.8974 2.3511 49.4993 2.74926C49.1011 3.14741 48.8767 3.68693 48.875 4.25V6.375H47.8125C47.5307 6.375 47.2605 6.48694 47.0612 6.6862C46.8619 6.88546 46.75 7.15571 46.75 7.4375V18.0625C46.7525 18.9071 47.0892 19.7164 47.6864 20.3136C48.2836 20.9108 49.0929 21.2475 49.9375 21.25H62.6875C63.5321 21.2475 64.3414 20.9108 64.9386 20.3136C65.5358 19.7164 65.8725 18.9071 65.875 18.0625V11.6875C65.875 11.4057 65.7631 11.1355 65.5638 10.9362C65.3645 10.7369 65.0943 10.625 64.8125 10.625ZM51 4.25H61.625V10.625H59.9356L56.0044 6.68312C55.8018 6.48742 55.5317 6.3771 55.25 6.375H51V4.25ZM63.75 18.0625C63.75 18.3443 63.6381 18.6145 63.4388 18.8138C63.2395 19.0131 62.9693 19.125 62.6875 19.125H49.9375C49.6557 19.125 49.3855 19.0131 49.1862 18.8138C48.9869 18.6145 48.875 18.3443 48.875 18.0625V8.5H54.8144L58.7456 12.4419C58.9482 12.6376 59.2183 12.7479 59.5 12.75H63.75V18.0625Z" fill="#F8B249"/>
<path d="M30.9612 30.8231L28.1137 30.4194C27.9236 29.8188 27.6818 29.2358 27.3913 28.6769L29.1231 26.3712C29.2778 26.166 29.3523 25.9115 29.3327 25.6553C29.3132 25.399 29.2009 25.1587 29.0169 24.9794L26.0206 21.9831C25.8413 21.7991 25.601 21.6868 25.3447 21.6673C25.0885 21.6477 24.834 21.7222 24.6288 21.8769L22.3231 23.6087C21.7642 23.3182 21.1812 23.0764 20.5806 22.8863L20.1769 20.0388C20.141 19.7853 20.0149 19.5533 19.8216 19.3854C19.6284 19.2175 19.381 19.125 19.125 19.125H14.875C14.619 19.125 14.3716 19.2175 14.1784 19.3854C13.9851 19.5533 13.859 19.7853 13.8231 20.0388L13.4194 22.8863C12.8188 23.0764 12.2358 23.3182 11.6769 23.6087L9.37125 21.8769C9.16603 21.7222 8.91147 21.6477 8.65526 21.6673C8.39904 21.6868 8.15874 21.7991 7.97938 21.9831L4.98313 24.9794C4.79912 25.1587 4.68682 25.399 4.66726 25.6553C4.6477 25.9115 4.72223 26.166 4.87688 26.3712L6.60875 28.6769C6.31817 29.2358 6.07644 29.8188 5.88625 30.4194L3.03875 30.8231C2.78528 30.859 2.55326 30.9851 2.38538 31.1784C2.2175 31.3716 2.12504 31.619 2.125 31.875V36.125C2.12504 36.381 2.2175 36.6284 2.38538 36.8216C2.55326 37.0149 2.78528 37.141 3.03875 37.1769L5.88625 37.5806C6.07644 38.1812 6.31817 38.7642 6.60875 39.3231L4.87688 41.6288C4.72223 41.834 4.6477 42.0885 4.66726 42.3447C4.68682 42.601 4.79912 42.8413 4.98313 43.0206L7.97938 46.0169C8.15874 46.2009 8.39904 46.3132 8.65526 46.3327C8.91147 46.3523 9.16603 46.2778 9.37125 46.1231L11.6769 44.3912C12.2358 44.6818 12.8188 44.9236 13.4194 45.1137L13.8231 47.9612C13.859 48.2147 13.9851 48.4467 14.1784 48.6146C14.3716 48.7825 14.619 48.875 14.875 48.875H19.125C19.381 48.875 19.6284 48.7825 19.8216 48.6146C20.0149 48.4467 20.141 48.2147 20.1769 47.9612L20.5806 45.1137C21.1812 44.9236 21.7642 44.6818 22.3231 44.3912L24.6288 46.1231C24.834 46.2778 25.0885 46.3523 25.3447 46.3327C25.601 46.3132 25.8413 46.2009 26.0206 46.0169L29.0169 43.0206C29.2009 42.8413 29.3132 42.601 29.3327 42.3447C29.3523 42.0885 29.2778 41.834 29.1231 41.6288L27.3913 39.3231C27.6818 38.7642 27.9236 38.1812 28.1137 37.5806L30.9612 37.1769C31.2147 37.141 31.4467 37.0149 31.6146 36.8216C31.7825 36.6284 31.875 36.381 31.875 36.125V31.875C31.875 31.619 31.7825 31.3716 31.6146 31.1784C31.4467 30.9851 31.2147 30.859 30.9612 30.8231ZM29.75 35.2006L27.1363 35.5725C26.9266 35.6023 26.7306 35.6941 26.5735 35.8361C26.4163 35.9781 26.3052 36.1638 26.2544 36.3694C26.0321 37.2484 25.6813 38.0898 25.2131 38.8663C25.1082 39.0478 25.0583 39.256 25.0696 39.4654C25.0809 39.6748 25.1529 39.8764 25.2769 40.0456L26.8706 42.16L25.16 43.8706L23.0456 42.2769C22.8764 42.1529 22.6748 42.0809 22.4654 42.0696C22.256 42.0583 22.0478 42.1082 21.8662 42.2131C21.0898 42.6813 20.2484 43.0321 19.3694 43.2544C19.1638 43.3052 18.9781 43.4163 18.8361 43.5735C18.6941 43.7306 18.6023 43.9266 18.5725 44.1363L18.2006 46.75H15.7994L15.4275 44.1363C15.3977 43.9266 15.3059 43.7306 15.1639 43.5735C15.0219 43.4163 14.8362 43.3052 14.6306 43.2544C13.7516 43.0321 12.9102 42.6813 12.1338 42.2131C11.9522 42.1082 11.744 42.0583 11.5346 42.0696C11.3252 42.0809 11.1236 42.1529 10.9544 42.2769L8.84 43.8706L7.12938 42.16L8.72313 40.0456C8.84706 39.8764 8.91907 39.6748 8.93039 39.4654C8.94171 39.256 8.89185 39.0478 8.78688 38.8663C8.31872 38.0898 7.96785 37.2484 7.74562 36.3694C7.69479 36.1638 7.58367 35.9781 7.42654 35.8361C7.2694 35.6941 7.07342 35.6023 6.86375 35.5725L4.25 35.2006V32.7994L6.86375 32.4275C7.07342 32.3977 7.2694 32.3059 7.42654 32.1639C7.58367 32.0219 7.69479 31.8362 7.74562 31.6306C7.96785 30.7516 8.31872 29.9102 8.78688 29.1338C8.89185 28.9522 8.94171 28.744 8.93039 28.5346C8.91907 28.3252 8.84706 28.1236 8.72313 27.9544L7.12938 25.84L8.84 24.1294L10.9544 25.7231C11.1236 25.8471 11.3252 25.9191 11.5346 25.9304C11.744 25.9417 11.9522 25.8918 12.1338 25.7869C12.9102 25.3187 13.7516 24.9679 14.6306 24.7456C14.8362 24.6948 15.0219 24.5837 15.1639 24.4265C15.3059 24.2694 15.3977 24.0734 15.4275 23.8637L15.7994 21.25H18.2006L18.5725 23.8637C18.6023 24.0734 18.6941 24.2694 18.8361 24.4265C18.9781 24.5837 19.1638 24.6948 19.3694 24.7456C20.2484 24.9679 21.0898 25.3187 21.8662 25.7869C22.0478 25.8918 22.256 25.9417 22.4654 25.9304C22.6748 25.9191 22.8764 25.8471 23.0456 25.7231L25.16 24.1294L26.8706 25.84L25.2769 27.9544C25.1529 28.1236 25.0809 28.3252 25.0696 28.5346C25.0583 28.744 25.1082 28.9522 25.2131 29.1338C25.6813 29.9102 26.0321 30.7516 26.2544 31.6306C26.3052 31.8362 26.4163 32.0219 26.5735 32.1639C26.7306 32.3059 26.9266 32.3977 27.1363 32.4275L29.75 32.7994V35.2006Z" fill="#F8B249"/>
<path d="M17 27.625C15.7391 27.625 14.5066 27.9989 13.4582 28.6994C12.4099 29.3999 11.5928 30.3955 11.1103 31.5604C10.6278 32.7253 10.5015 34.0071 10.7475 35.2437C10.9935 36.4803 11.6006 37.6162 12.4922 38.5078C13.3838 39.3994 14.5197 40.0065 15.7563 40.2525C16.9929 40.4985 18.2747 40.3722 19.4396 39.8897C20.6045 39.4072 21.6001 38.5901 22.3006 37.5418C23.0011 36.4934 23.375 35.2609 23.375 34C23.3733 32.3098 22.7011 30.6892 21.5059 29.4941C20.3108 28.2989 18.6902 27.6267 17 27.625ZM17 38.25C16.1594 38.25 15.3377 38.0007 14.6388 37.5337C13.9399 37.0667 13.3952 36.403 13.0735 35.6264C12.7518 34.8498 12.6677 33.9953 12.8317 33.1709C12.9957 32.3464 13.4004 31.5892 13.9948 30.9948C14.5892 30.4004 15.3465 29.9956 16.1709 29.8317C16.9953 29.6677 17.8498 29.7518 18.6264 30.0735C19.403 30.3952 20.0668 30.9399 20.5337 31.6388C21.0007 32.3377 21.25 33.1594 21.25 34C21.25 35.1272 20.8022 36.2082 20.0052 37.0052C19.2082 37.8022 18.1272 38.25 17 38.25Z" fill="#F8B249"/>
<path d="M37.1875 13.8125V32.9375H34V35.0625H37.1875V57.375C37.1875 57.6568 37.2994 57.927 37.4987 58.1263C37.698 58.3256 37.9682 58.4375 38.25 58.4375H44.625V56.3125H39.3125V35.0625H44.625V32.9375H39.3125V14.875H44.625V12.75H38.25C37.9682 12.75 37.698 12.8619 37.4987 13.0612C37.2994 13.2605 37.1875 13.5307 37.1875 13.8125Z" fill="black"/>
</svg>
