<svg width="24" height="24" viewBox="0 0 24 24" fill="none" xmlns="http://www.w3.org/2000/svg">
<path d="M0 3C0 1.34315 1.34315 0 3 0H21C22.6569 0 24 1.34315 24 3V21C24 22.6569 22.6569 24 21 24H3C1.34315 24 0 22.6569 0 21V3ZM13.3961 9.88184L9.95953 10.3125L9.83648 10.8838L10.5132 11.0068C10.9527 11.1123 11.0406 11.2705 10.9439 11.71L9.83648 16.9131C9.54645 18.2578 9.99469 18.8906 11.0494 18.8906C11.8668 18.8906 12.816 18.5127 13.2466 17.9941L13.3785 17.3701C13.0796 17.6338 12.6402 17.7393 12.3502 17.7393C11.9371 17.7393 11.7877 17.4492 11.8931 16.9395L13.3961 9.88184ZM12 8.25C12.8284 8.25 13.5 7.57843 13.5 6.75C13.5 5.92157 12.8284 5.25 12 5.25C11.1716 5.25 10.5 5.92157 10.5 6.75C10.5 7.57843 11.1716 8.25 12 8.25Z" fill="#7AD2D6"/>
</svg>
