<svg width="28" height="28" viewBox="0 0 28 28" fill="none" xmlns="http://www.w3.org/2000/svg">
<path d="M13.9998 27.3333L8.5665 21.9L10.0332 20.4333L12.9998 23.4V17.1H14.9998V23.4L17.9665 20.4333L19.4332 21.9L13.9998 27.3333ZM5.93317 19.2667L0.666504 14L5.9665 8.7L7.43317 10.1667L4.59984 13H10.8998V15H4.59984L7.39984 17.8L5.93317 19.2667ZM22.0665 19.2667L20.5998 17.8L23.3998 15H17.1332V13H23.3998L20.5998 10.2L22.0665 8.73333L27.3332 14L22.0665 19.2667ZM12.9998 10.8667V4.6L10.1998 7.4L8.73317 5.93333L13.9998 0.666667L19.2665 5.93333L17.7998 7.4L14.9998 4.6V10.8667H12.9998Z" fill="black"/>
</svg>
