<svg width="68" height="68" viewBox="0 0 68 68" fill="none" xmlns="http://www.w3.org/2000/svg">
<path d="M51.2316 9.384H46.087V5.3125C46.087 5.03071 45.9751 4.76046 45.7758 4.5612C45.5765 4.36194 45.3063 4.25 45.0245 4.25H22.9755C22.6937 4.25 22.4235 4.36194 22.2242 4.5612C22.0249 4.76046 21.913 5.03071 21.913 5.3125V9.384H16.7684C15.923 9.384 15.1122 9.71983 14.5145 10.3176C13.9167 10.9154 13.5809 11.7261 13.5809 12.5715V61.625C13.5809 62.1886 13.8048 62.7291 14.2033 63.1276C14.6018 63.5261 15.1423 63.75 15.7059 63.75H52.2941C52.8577 63.75 53.3982 63.5261 53.7967 63.1276C54.1952 62.7291 54.4191 62.1886 54.4191 61.625V12.5715C54.4191 11.7261 54.0833 10.9154 53.4855 10.3176C52.8878 9.71983 52.077 9.384 51.2316 9.384ZM24.038 6.375H43.962V14.518H24.038V6.375ZM52.2941 61.625H15.7059V12.5715C15.7059 12.2897 15.8178 12.0195 16.0171 11.8202C16.2163 11.6209 16.4866 11.509 16.7684 11.509H21.913V15.5805C21.913 15.8623 22.0249 16.1325 22.2242 16.3318C22.4235 16.5311 22.6937 16.643 22.9755 16.643H45.0245C45.3063 16.643 45.5765 16.5311 45.7758 16.3318C45.9751 16.1325 46.087 15.8623 46.087 15.5805V11.509H51.2316C51.5134 11.509 51.7837 11.6209 51.9829 11.8202C52.1822 12.0195 52.2941 12.2897 52.2941 12.5715V61.625Z" fill="#F8B249"/>
<path d="M27.625 21.5156C26.1353 21.5156 24.6791 21.9574 23.4404 22.785C22.2018 23.6126 21.2364 24.789 20.6663 26.1653C20.0962 27.5416 19.947 29.056 20.2377 30.5171C20.5283 31.9782 21.2457 33.3203 22.299 34.3737C23.3524 35.427 24.6945 36.1444 26.1556 36.435C27.6167 36.7256 29.1311 36.5765 30.5074 36.0064C31.8837 35.4363 33.0601 34.4709 33.8877 33.2323C34.7153 31.9936 35.1571 30.5374 35.1571 29.0477C35.154 27.051 34.3594 25.137 32.9476 23.7251C31.5357 22.3133 29.6217 21.5187 27.625 21.5156ZM27.625 34.4548C26.5556 34.4548 25.5102 34.1376 24.621 33.5435C23.7318 32.9494 23.0388 32.1049 22.6295 31.1169C22.2203 30.1289 22.1132 29.0417 22.3218 27.9928C22.5305 26.944 23.0454 25.9805 23.8016 25.2243C24.5578 24.4681 25.5213 23.9532 26.5701 23.7445C27.619 23.5359 28.7062 23.643 29.6942 24.0522C30.6822 24.4615 31.5267 25.1545 32.1208 26.0437C32.715 26.9329 33.0321 27.9783 33.0321 29.0477C33.0304 30.4812 32.4602 31.8555 31.4465 32.8692C30.4329 33.8829 29.0585 34.4531 27.625 34.4548Z" fill="black"/>
<path d="M29.4822 26.5976L26.8366 29.2442L25.7678 28.1754C25.5674 27.9818 25.299 27.8747 25.0204 27.8772C24.7418 27.8796 24.4753 27.9913 24.2783 28.1883C24.0813 28.3853 23.9696 28.6518 23.9672 28.9304C23.9647 29.209 24.0718 29.4774 24.2654 29.6777L26.0854 31.4978C26.2847 31.697 26.5549 31.8089 26.8366 31.8089C27.1184 31.8089 27.3886 31.697 27.5878 31.4978L30.9878 28.0978C31.1814 27.8974 31.2884 27.629 31.286 27.3504C31.2836 27.0719 31.1719 26.8054 30.9749 26.6084C30.7779 26.4114 30.5114 26.2996 30.2328 26.2972C29.9542 26.2948 29.6858 26.4019 29.4854 26.5954L29.4822 26.5976Z" fill="black"/>
<path d="M27.625 40.8C26.135 40.7998 24.6785 41.2414 23.4395 42.069C22.2006 42.8967 21.2349 44.0731 20.6645 45.4496C20.0942 46.8261 19.9449 48.3408 20.2354 49.8021C20.526 51.2635 21.2434 52.6058 22.2968 53.6595C23.3503 54.7131 24.6926 55.4307 26.1539 55.7214C27.6152 56.0122 29.1299 55.8631 30.5065 55.2929C31.8831 54.7228 33.0596 53.7573 33.8874 52.5184C34.7152 51.2796 35.1571 49.8231 35.1571 48.3331C35.1542 46.3363 34.3598 44.422 32.9479 43.0099C31.536 41.5978 29.6219 40.8031 27.625 40.8ZM27.625 53.7402C26.5553 53.7404 25.5095 53.4234 24.62 52.8292C23.7305 52.235 23.0371 51.3904 22.6277 50.4022C22.2182 49.4139 22.111 48.3264 22.3197 47.2773C22.5283 46.2281 23.0434 45.2643 23.7998 44.5079C24.5562 43.7515 25.5199 43.2364 26.5691 43.0278C27.6183 42.8192 28.7058 42.9264 29.694 43.3358C30.6823 43.7453 31.5269 44.4386 32.1211 45.3281C32.7152 46.2177 33.0323 47.2634 33.0321 48.3331C33.0312 49.7672 32.4614 51.1423 31.4476 52.1567C30.4339 53.171 29.0591 53.7417 27.625 53.7434V53.7402Z" fill="black"/>
<path d="M29.4822 45.8862L26.8366 48.5318L25.7678 47.464C25.5674 47.2705 25.299 47.1634 25.0204 47.1658C24.7418 47.1682 24.4753 47.2799 24.2783 47.4769C24.0813 47.6739 23.9696 47.9404 23.9672 48.219C23.9647 48.4976 24.0718 48.766 24.2654 48.9664L26.0854 50.7875C26.2847 50.9867 26.5549 51.0986 26.8366 51.0986C27.1184 51.0986 27.3886 50.9867 27.5878 50.7875L30.9878 47.3875C31.1814 47.1871 31.2884 46.9187 31.286 46.6401C31.2836 46.3616 31.1719 46.0951 30.9749 45.8981C30.7779 45.7011 30.5114 45.5893 30.2328 45.5869C29.9542 45.5845 29.6858 45.6916 29.4854 45.8851L29.4822 45.8862Z" fill="black"/>
<path d="M38.4922 27.1787H43.5094C43.7912 27.1787 44.0614 27.0668 44.2607 26.8676C44.4599 26.6683 44.5719 26.398 44.5719 26.1162C44.5719 25.8345 44.4599 25.5642 44.2607 25.3649C44.0614 25.1657 43.7912 25.0537 43.5094 25.0537H38.4922C38.2105 25.0537 37.9402 25.1657 37.7409 25.3649C37.5417 25.5642 37.4297 25.8345 37.4297 26.1162C37.4297 26.398 37.5417 26.6683 37.7409 26.8676C37.9402 27.0668 38.2105 27.1787 38.4922 27.1787Z" fill="black"/>
<path d="M47.7594 30.9187H38.4922C38.2105 30.9187 37.9402 31.0307 37.7409 31.2299C37.5417 31.4292 37.4297 31.6995 37.4297 31.9812C37.4297 32.263 37.5417 32.5333 37.7409 32.7325C37.9402 32.9318 38.2105 33.0437 38.4922 33.0437H47.7594C48.0412 33.0437 48.3114 32.9318 48.5107 32.7325C48.7099 32.5333 48.8219 32.263 48.8219 31.9812C48.8219 31.6995 48.7099 31.4292 48.5107 31.2299C48.3114 31.0307 48.0412 30.9187 47.7594 30.9187Z" fill="black"/>
<path d="M38.4922 46.4663H43.5094C43.7912 46.4663 44.0614 46.3544 44.2607 46.1551C44.4599 45.9559 44.5719 45.6856 44.5719 45.4038C44.5719 45.122 44.4599 44.8518 44.2607 44.6525C44.0614 44.4533 43.7912 44.3413 43.5094 44.3413H38.4922C38.2105 44.3413 37.9402 44.4533 37.7409 44.6525C37.5417 44.8518 37.4297 45.122 37.4297 45.4038C37.4297 45.6856 37.5417 45.9559 37.7409 46.1551C37.9402 46.3544 38.2105 46.4663 38.4922 46.4663Z" fill="black"/>
<path d="M47.7594 50.2052H38.4922C38.2105 50.2052 37.9402 50.3172 37.7409 50.5164C37.5417 50.7157 37.4297 50.986 37.4297 51.2677C37.4297 51.5495 37.5417 51.8198 37.7409 52.0191C37.9402 52.2183 38.2105 52.3302 38.4922 52.3302H47.7594C48.0412 52.3302 48.3114 52.2183 48.5107 52.0191C48.7099 51.8198 48.8219 51.5495 48.8219 51.2677C48.8219 50.986 48.7099 50.7157 48.5107 50.5164C48.3114 50.3172 48.0412 50.2052 47.7594 50.2052Z" fill="black"/>
</svg>
