<svg width="16" height="16" viewBox="0 0 16 16" fill="none" xmlns="http://www.w3.org/2000/svg">
<path d="M11 5.46616V3.99992H5C2.79086 3.99992 1 5.79078 1 7.99992C1 8.63942 1.1497 9.24252 1.41552 9.77741C1.53841 10.0247 1.43757 10.3248 1.19028 10.4477C0.942987 10.5706 0.642895 10.4697 0.520003 10.2224C0.187005 9.55237 0 8.79727 0 7.99992C0 5.2385 2.23858 2.99992 5 2.99992H11V1.53368C11 1.32172 11.2472 1.20593 11.41 1.34163L13.7695 3.30787C13.8895 3.40781 13.8895 3.59203 13.7695 3.69198L11.41 5.65822C11.2472 5.79391 11 5.67812 11 5.46616Z" fill="black"/>
<path d="M14.8097 5.55217C15.057 5.42927 15.3571 5.53012 15.48 5.77741C15.813 6.44748 16 7.20258 16 7.99992C16 10.7613 13.7614 12.9999 11 12.9999H5V14.4662C5 14.6781 4.75279 14.7939 4.58995 14.6582L2.23047 12.692C2.11053 12.592 2.11053 12.4078 2.23047 12.3079L4.58995 10.3416C4.75279 10.2059 5 10.3217 5 10.5337V11.9999H11C13.2091 11.9999 15 10.2091 15 7.99992C15 7.36043 14.8503 6.75733 14.5845 6.22244C14.4616 5.97515 14.5624 5.67506 14.8097 5.55217Z" fill="black"/>
</svg>
