<svg width="68" height="68" viewBox="0 0 68 68" fill="none" xmlns="http://www.w3.org/2000/svg">
<path d="M54.6429 30.5393L47.8671 37.3126L44.9286 34.3546C44.7006 34.1269 44.3914 33.9991 44.0692 33.9993C43.747 33.9996 43.438 34.1278 43.2104 34.3558C42.9827 34.5838 42.8549 34.8929 42.8551 35.2151C42.8553 35.5374 42.9836 35.8463 43.2116 36.074L47.0269 39.8893C47.2546 40.1169 47.5634 40.2448 47.8854 40.2448C48.2073 40.2448 48.5161 40.1169 48.7438 39.8893L56.3793 32.2563C56.4953 32.1443 56.5878 32.0103 56.6514 31.8621C56.715 31.714 56.7485 31.5546 56.7499 31.3934C56.7513 31.2322 56.7206 31.0723 56.6596 30.9231C56.5985 30.7738 56.5083 30.6382 56.3943 30.5242C56.2803 30.4102 56.1447 30.3201 55.9955 30.259C55.8463 30.1979 55.6864 30.1672 55.5252 30.1686C55.3639 30.17 55.2046 30.2035 55.0564 30.2672C54.9083 30.3308 54.7743 30.4233 54.6623 30.5393H54.6429Z" fill="black"/>
<path d="M64.3571 35.2143C64.3508 31.7741 63.1286 28.4469 60.9066 25.8205C58.6847 23.1941 55.6059 21.4377 52.2143 20.8614V14.5714C52.2146 14.4119 52.1834 14.2538 52.1226 14.1063C52.0617 13.9588 51.9724 13.8247 51.8597 13.7117L42.1454 3.99743C42.0325 3.88474 41.8984 3.79542 41.7509 3.73458C41.6033 3.67374 41.4453 3.64257 41.2857 3.64285H12.1429C11.8208 3.64285 11.5119 3.77079 11.2842 3.99851C11.0565 4.22623 10.9286 4.53509 10.9286 4.85714V10.9286H4.85714C4.53509 10.9286 4.22623 11.0565 3.99851 11.2842C3.77079 11.5119 3.64285 11.8208 3.64285 12.1429V63.1429C3.64285 63.4649 3.77079 63.7738 3.99851 64.0015C4.22623 64.2292 4.53509 64.3571 4.85714 64.3571H46.1429C46.4649 64.3571 46.7738 64.2292 47.0015 64.0015C47.2292 63.7738 47.3571 63.4649 47.3571 63.1429V57.0714H51C51.322 57.0714 51.6309 56.9435 51.8586 56.7158C52.0864 56.4881 52.2143 56.1792 52.2143 55.8571V49.5671C55.6059 48.9909 58.6847 47.2344 60.9066 44.6081C63.1286 41.9817 64.3508 38.6545 64.3571 35.2143ZM42.5 7.78843L48.0687 13.3571H42.5V7.78843ZM44.9286 61.9286H6.07142V13.3571H10.9286V55.8571C10.9286 56.1792 11.0565 56.4881 11.2842 56.7158C11.5119 56.9435 11.8208 57.0714 12.1429 57.0714H44.9286V61.9286ZM49.7857 54.6429H13.3571V6.07143H40.0714V14.5714C40.0714 14.8935 40.1994 15.2023 40.4271 15.4301C40.6548 15.6578 40.9637 15.7857 41.2857 15.7857H49.7857V20.6429C45.9211 20.6429 42.2148 22.1781 39.4822 24.9107C36.7495 27.6434 35.2143 31.3497 35.2143 35.2143C35.2143 39.0789 36.7495 42.7852 39.4822 45.5178C42.2148 48.2505 45.9211 49.7857 49.7857 49.7857V54.6429ZM49.7857 47.3571C47.3841 47.3571 45.0364 46.645 43.0395 45.3107C41.0426 43.9764 39.4862 42.08 38.5672 39.8612C37.6481 37.6423 37.4076 35.2008 37.8762 32.8453C38.3447 30.4898 39.5012 28.3262 41.1994 26.628C42.8976 24.9298 45.0613 23.7733 47.4168 23.3047C49.7722 22.8362 52.2138 23.0767 54.4326 23.9957C56.6514 24.9148 58.5479 26.4712 59.8821 28.4681C61.2164 30.465 61.9286 32.8127 61.9286 35.2143C61.9247 38.4336 60.6441 41.5199 58.3678 43.7963C56.0914 46.0727 53.005 47.3533 49.7857 47.3571Z" fill="#F8B249"/>
<path d="M25.5 33.1403L21.7406 36.9143L20.2834 35.4571C20.0557 35.2291 19.7468 35.1009 19.4246 35.1007C19.1023 35.1005 18.7932 35.2282 18.5652 35.4559C18.3372 35.6836 18.209 35.9926 18.2087 36.3148C18.2085 36.637 18.3363 36.9461 18.564 37.1741L20.8784 39.4861C21.1061 39.7138 21.4149 39.8417 21.7369 39.8417C22.0589 39.8417 22.3677 39.7138 22.5954 39.4861L27.2218 34.8719C27.4499 34.6442 27.5781 34.3352 27.5783 34.013C27.5785 33.6908 27.4507 33.3817 27.2231 33.1536C26.9954 32.9256 26.6864 32.7974 26.3642 32.7972C26.042 32.797 25.7329 32.9247 25.5048 33.1524L25.5 33.1403Z" fill="black"/>
<path d="M25.5 42.8546L21.7406 46.6286L20.2834 45.1714C20.1707 45.0585 20.0368 44.9689 19.8894 44.9078C19.7421 44.8466 19.5841 44.8151 19.4246 44.815C19.265 44.8149 19.107 44.8462 18.9595 44.9071C18.8121 44.9681 18.6781 45.0575 18.5652 45.1702C18.4523 45.283 18.3627 45.4168 18.3016 45.5642C18.2404 45.7115 18.2089 45.8695 18.2087 46.0291C18.2086 46.1886 18.2399 46.3466 18.3009 46.4941C18.3618 46.6415 18.4512 46.7755 18.564 46.8884L20.8784 49.2004C21.1061 49.4281 21.4149 49.556 21.7369 49.556C22.0589 49.556 22.3677 49.4281 22.5954 49.2004L27.2218 44.5861C27.4499 44.3585 27.5781 44.0495 27.5783 43.7273C27.5785 43.4051 27.4507 43.0959 27.2231 42.8679C26.9954 42.6399 26.6864 42.5117 26.3642 42.5115C26.042 42.5112 25.7329 42.639 25.5048 42.8667L25.5 42.8546Z" fill="black"/>
<path d="M19.4286 13.3571H34C34.3221 13.3571 34.6309 13.2292 34.8586 13.0015C35.0864 12.7738 35.2143 12.4649 35.2143 12.1429C35.2143 11.8208 35.0864 11.512 34.8586 11.2842C34.6309 11.0565 34.3221 10.9286 34 10.9286H19.4286C19.1065 10.9286 18.7977 11.0565 18.57 11.2842C18.3422 11.512 18.2143 11.8208 18.2143 12.1429C18.2143 12.4649 18.3422 12.7738 18.57 13.0015C18.7977 13.2292 19.1065 13.3571 19.4286 13.3571Z" fill="black"/>
<path d="M34 18.2143H19.4286C19.1065 18.2143 18.7977 18.3422 18.57 18.5699C18.3422 18.7977 18.2143 19.1065 18.2143 19.4286C18.2143 19.7506 18.3422 20.0595 18.57 20.2872C18.7977 20.5149 19.1065 20.6429 19.4286 20.6429H34C34.3221 20.6429 34.6309 20.5149 34.8586 20.2872C35.0864 20.0595 35.2143 19.7506 35.2143 19.4286C35.2143 19.1065 35.0864 18.7977 34.8586 18.5699C34.6309 18.3422 34.3221 18.2143 34 18.2143Z" fill="black"/>
<path d="M26.7143 25.5H19.4286C19.1065 25.5 18.7977 25.6279 18.57 25.8557C18.3422 26.0834 18.2143 26.3922 18.2143 26.7143C18.2143 27.0363 18.3422 27.3452 18.57 27.5729C18.7977 27.8006 19.1065 27.9286 19.4286 27.9286H26.7143C27.0363 27.9286 27.3452 27.8006 27.5729 27.5729C27.8006 27.3452 27.9286 27.0363 27.9286 26.7143C27.9286 26.3922 27.8006 26.0834 27.5729 25.8557C27.3452 25.6279 27.0363 25.5 26.7143 25.5Z" fill="black"/>
</svg>
